<?xml version="1.0" encoding="UTF-8"?>
<svg width="1920" height="1080" version="1.1" viewBox="0 0 1920 1080" xmlns="http://www.w3.org/2000/svg">
 <defs>
  <linearGradient id="skyGradient" x1="0" x2="0" y1="0" y2="1">
   <stop stop-color="#87CEEB" offset="0"/>
   <stop stop-color="#B0E0E6" offset="1"/>
  </linearGradient>
  <linearGradient id="grassGradient" x1="0" x2="0" y1="0" y2="1">
   <stop stop-color="#7EC850" offset="0"/>
   <stop stop-color="#5AA02C" offset="1"/>
  </linearGradient>
 </defs>
 
 <!-- Sky background -->
 <rect width="1920" height="800" fill="url(#skyGradient)"/>
 
 <!-- Distant hills -->
 <path d="m-100 500c200-100 400-150 600-50s400 100 600 50 400-100 600-50 400 100 600 50v400h-2400z" fill="#8FB98B" opacity=".8"/>
 
 <!-- Main grass field -->
 <rect y="650" width="1920" height="430" fill="url(#grassGradient)"/>
 
 <!-- Scattered flowers -->
 <g fill="#FFFFFF" opacity=".9">
  <circle cx="200" cy="750" r="5"/>
  <circle cx="350" cy="800" r="4"/>
  <circle cx="500" cy="730" r="5"/>
  <circle cx="650" cy="820" r="4"/>
  <circle cx="800" cy="760" r="5"/>
  <circle cx="950" cy="830" r="4"/>
  <circle cx="1100" cy="750" r="5"/>
  <circle cx="1250" cy="810" r="4"/>
  <circle cx="1400" cy="780" r="5"/>
  <circle cx="1550" cy="820" r="4"/>
  <circle cx="1700" cy="770" r="5"/>
 </g>
 
 <!-- Yellow flowers -->
 <g fill="#FFFF00" opacity=".9">
  <circle cx="150" cy="780" r="4"/>
  <circle cx="300" cy="740" r="5"/>
  <circle cx="450" cy="820" r="4"/>
  <circle cx="600" cy="760" r="5"/>
  <circle cx="750" cy="830" r="4"/>
  <circle cx="900" cy="750" r="5"/>
  <circle cx="1050" cy="810" r="4"/>
  <circle cx="1200" cy="760" r="5"/>
  <circle cx="1350" cy="830" r="4"/>
  <circle cx="1500" cy="740" r="5"/>
  <circle cx="1650" cy="800" r="4"/>
  <circle cx="1800" cy="760" r="5"/>
 </g>
 
 <!-- Red poppies -->
 <g fill="#FF6B6B" opacity=".9">
  <circle cx="250" cy="790" r="5"/>
  <circle cx="400" cy="750" r="6"/>
  <circle cx="550" cy="800" r="5"/>
  <circle cx="700" cy="760" r="6"/>
  <circle cx="850" cy="810" r="5"/>
  <circle cx="1000" cy="770" r="6"/>
  <circle cx="1150" cy="830" r="5"/>
  <circle cx="1300" cy="750" r="6"/>
  <circle cx="1450" cy="800" r="5"/>
  <circle cx="1600" cy="770" r="6"/>
  <circle cx="1750" cy="820" r="5"/>
 </g>
 
 <!-- Lavender flowers -->
 <g fill="#B57EDC" opacity=".8">
  <circle cx="180" cy="770" r="4"/>
  <circle cx="320" cy="810" r="5"/>
  <circle cx="470" cy="760" r="4"/>
  <circle cx="630" cy="830" r="5"/>
  <circle cx="780" cy="780" r="4"/>
  <circle cx="920" cy="820" r="5"/>
  <circle cx="1070" cy="770" r="4"/>
  <circle cx="1220" cy="810" r="5"/>
  <circle cx="1380" cy="760" r="4"/>
  <circle cx="1520" cy="820" r="5"/>
  <circle cx="1680" cy="780" r="4"/>
  <circle cx="1830" cy="830" r="5"/>
 </g>
 
 <!-- Sun -->
 <circle cx="1700" cy="150" r="80" fill="#FFEF00" opacity=".9"/>
 <circle cx="1700" cy="150" r="50" fill="#FFF700"/>
 
 <!-- Clouds -->
 <g fill="#FFFFFF" opacity=".85">
  <ellipse cx="300" cy="200" rx="100" ry="40"/>
  <ellipse cx="350" cy="180" rx="80" ry="50"/>
  <ellipse cx="390" cy="220" rx="70" ry="30"/>
  
  <ellipse cx="800" cy="150" rx="120" ry="50"/>
  <ellipse cx="850" cy="120" rx="90" ry="60"/>
  <ellipse cx="900" cy="170" rx="80" ry="40"/>
  
  <ellipse cx="1300" cy="250" rx="110" ry="45"/>
  <ellipse cx="1350" cy="230" rx="85" ry="55"/>
  <ellipse cx="1400" cy="270" rx="75" ry="35"/>
 </g>
</svg>