<svg xmlns="http://www.w3.org/2000/svg" viewBox="-50 -40 100 80">
  <!-- Level 8: Exotic Blue Morpho Evolved -->
  <defs>
    <linearGradient id="blueGradient" x1="0%" y1="0%" x2="100%" y2="100%">
      <stop offset="0%" stop-color="#0033FF"/>
      <stop offset="25%" stop-color="#0066FF"/>
      <stop offset="50%" stop-color="#0099FF"/>
      <stop offset="75%" stop-color="#0066FF"/>
      <stop offset="100%" stop-color="#0033FF"/>
    </linearGradient>
    <linearGradient id="deepBlue" x1="0%" y1="0%" x2="100%" y2="100%">
      <stop offset="0%" stop-color="#000066"/>
      <stop offset="50%" stop-color="#000099"/>
      <stop offset="100%" stop-color="#000066"/>
    </linearGradient>
    <filter id="shadow" x="-20%" y="-20%" width="140%" height="140%">
      <feGaussianBlur in="SourceAlpha" stdDeviation="2"/>
      <feOffset dx="1" dy="1" result="offsetblur"/>
      <feComponentTransfer>
        <feFuncA type="linear" slope="0.5"/>
      </feComponentTransfer>
      <feMerge>
        <feMergeNode/>
        <feMergeNode in="SourceGraphic"/>
      </feMerge>
    </filter>
    <filter id="glow" x="-20%" y="-20%" width="140%" height="140%">
      <feGaussianBlur stdDeviation="2" result="blur"/>
      <feComposite in="SourceGraphic" in2="blur" operator="over"/>
    </filter>
  </defs>
  
  <!-- Body -->
  <g transform="translate(0,0)">
    <!-- Butterfly Body -->
    <ellipse cx="0" cy="0" rx="3.5" ry="18" fill="#000033"/>
    
    <!-- Antennae -->
    <path d="M0,-16 Q-7,-25 -11,-33" fill="none" stroke="#000033" stroke-width="0.8"/>
    <path d="M0,-16 Q7,-25 11,-33" fill="none" stroke="#000033" stroke-width="0.8"/>
    <circle cx="-11" cy="-33" r="1" fill="#000033"/>
    <circle cx="11" cy="-33" r="1" fill="#000033"/>
    
    <!-- Forewings -->
    <path d="M0,0 C-6,-15 -40,-28 -55,-12 C-58,0 -50,20 -25,22 C-12,12 0,0 0,0 Z" 
          fill="url(#blueGradient)" 
          filter="url(#shadow)"
          stroke="#000033" 
          stroke-width="0.4"/>
    
    <path d="M0,0 C6,-15 40,-28 55,-12 C58,0 50,20 25,22 C12,12 0,0 0,0 Z" 
          fill="url(#blueGradient)" 
          filter="url(#shadow)"
          stroke="#000033" 
          stroke-width="0.4"/>
    
    <!-- Iridescent Effect -->
    <path d="M-30,-10 C-40,-5 -45,0 -40,10" 
          stroke="#00CCFF" 
          stroke-width="8" 
          stroke-opacity="0.4"
          filter="url(#glow)"
          fill="none"/>
          
    <path d="M30,-10 C40,-5 45,0 40,10" 
          stroke="#00CCFF" 
          stroke-width="8" 
          stroke-opacity="0.4"
          filter="url(#glow)"
          fill="none"/>
    
    <!-- Wing Veins -->
    <path d="M-2,0 L-25,-15 M-2,0 L-35,0 M-2,0 L-25,15 M-15,10 L-20,20" 
          stroke="#000033" 
          stroke-width="0.5" 
          fill="none"/>
    
    <path d="M2,0 L25,-15 M2,0 L35,0 M2,0 L25,15 M15,10 L20,20" 
          stroke="#000033" 
          stroke-width="0.5" 
          fill="none"/>
    
    <!-- Wing Edge Details -->
    <path d="M-55,-12 L-52,-10 L-54,-8 L-51,-6 L-53,-4 L-50,-2 L-52,0 L-49,2 L-51,4 L-48,6" 
          stroke="#00CCFF" 
          stroke-width="0.8" 
          fill="none"/>
          
    <path d="M55,-12 L52,-10 L54,-8 L51,-6 L53,-4 L50,-2 L52,0 L49,2 L51,4 L48,6" 
          stroke="#00CCFF" 
          stroke-width="0.8" 
          fill="none"/>
    
    <!-- Hindwings with Scalloped Edge -->
    <path d="M0,0 C-6,8 -18,22 -15,35 C-25,33 -30,25 -25,15 C-18,8 -5,2 0,0 Z" 
          fill="url(#deepBlue)" 
          stroke="#000033" 
          stroke-width="0.4"
          opacity="0.95"
          filter="url(#shadow)"/>
    
    <path d="M0,0 C6,8 18,22 15,35 C25,33 30,25 25,15 C18,8 5,2 0,0 Z" 
          fill="url(#deepBlue)" 
          stroke="#000033" 
          stroke-width="0.4"
          opacity="0.95"
          filter="url(#shadow)"/>
          
    <!-- Hindwing Patterns -->
    <path d="M-20,20 C-17,25 -16,30 -15,35" 
          stroke="#00CCFF" 
          stroke-width="3"
          stroke-opacity="0.6"
          filter="url(#glow)" 
          fill="none"/>
          
    <path d="M20,20 C17,25 16,30 15,35" 
          stroke="#00CCFF" 
          stroke-width="3" 
          stroke-opacity="0.6"
          filter="url(#glow)"
          fill="none"/>
          
    <!-- Subtle Eyespots -->
    <circle cx="-12" cy="20" r="4" fill="#000022" stroke="#0066CC" stroke-width="0.5" opacity="0.7"/>
    <circle cx="-12" cy="20" r="2" fill="#000066" stroke="#0099FF" stroke-width="0.3" opacity="0.8"/>
    <circle cx="-12" cy="20" r="0.8" fill="#00CCFF" opacity="0.9"/>
    
    <circle cx="12" cy="20" r="4" fill="#000022" stroke="#0066CC" stroke-width="0.5" opacity="0.7"/>
    <circle cx="12" cy="20" r="2" fill="#000066" stroke="#0099FF" stroke-width="0.3" opacity="0.8"/>
    <circle cx="12" cy="20" r="0.8" fill="#00CCFF" opacity="0.9"/>
    
    <!-- Shimmer Effect -->
    <path d="M-40,-5 C-42,5 -38,15 -28,18" 
          stroke="white" 
          stroke-width="0.8" 
          stroke-opacity="0.6"
          fill="none"/>
          
    <path d="M40,-5 C42,5 38,15 28,18" 
          stroke="white" 
          stroke-width="0.8" 
          stroke-opacity="0.6"
          fill="none"/>
  </g>
</svg>
