<svg xmlns="http://www.w3.org/2000/svg" viewBox="-50 -40 100 80">
  <!-- Level 2: Pink Rose Butterfly Inspired -->
  <defs>
    <linearGradient id="pinkWing" x1="0%" y1="0%" x2="100%" y2="100%">
      <stop offset="0%" stop-color="#FFCCEE"/>
      <stop offset="50%" stop-color="#FF66AA"/>
      <stop offset="100%" stop-color="#CC0066"/>
    </linearGradient>
    <filter id="shadow" x="-20%" y="-20%" width="140%" height="140%">
      <feGaussianBlur in="SourceAlpha" stdDeviation="2"/>
      <feOffset dx="1" dy="1" result="offsetblur"/>
      <feComponentTransfer>
        <feFuncA type="linear" slope="0.5"/>
      </feComponentTransfer>
      <feMerge>
        <feMergeNode/>
        <feMergeNode in="SourceGraphic"/>
      </feMerge>
    </filter>
    <pattern id="pinkDots" width="10" height="10" patternUnits="userSpaceOnUse">
      <circle cx="5" cy="5" r="1.5" fill="white" opacity="0.7"/>
    </pattern>
  </defs>
  
  <!-- Body -->
  <g transform="translate(0,0)">
    <!-- Butterfly Body -->
    <ellipse cx="0" cy="0" rx="2.5" ry="12" fill="#330011"/>
    
    <!-- Antennae -->
    <path d="M0,-10 Q-5,-20 -8,-25" fill="none" stroke="#330011" stroke-width="0.8"/>
    <path d="M0,-10 Q5,-20 8,-25" fill="none" stroke="#330011" stroke-width="0.8"/>
    <circle cx="-8" cy="-25" r="1" fill="#330011"/>
    <circle cx="8" cy="-25" r="1" fill="#330011"/>
    
    <!-- Forewings -->
    <path d="M0,0 C-5,-10 -30,-22 -46,-12 C-50,0 -40,15 -20,15 C-10,10 0,0 0,0 Z" 
          fill="url(#pinkWing)" 
          filter="url(#shadow)"
          stroke="#330011" 
          stroke-width="0.3"/>
    
    <path d="M0,0 C5,-10 30,-22 46,-12 C50,0 40,15 20,15 C10,10 0,0 0,0 Z" 
          fill="url(#pinkWing)" 
          filter="url(#shadow)"
          stroke="#330011" 
          stroke-width="0.3"/>
    
    <!-- Wing Patterns - Veins & Dots -->
    <path d="M-2,0 L-20,-5 M-2,0 L-25,0 M-2,0 L-20,5 M-2,0 L-15,10" 
          stroke="#330011" 
          stroke-width="0.3" 
          fill="none"/>
    
    <path d="M2,0 L20,-5 M2,0 L25,0 M2,0 L20,5 M2,0 L15,10" 
          stroke="#330011" 
          stroke-width="0.3" 
          fill="none"/>
          
    <!-- Wing Pattern -->
    <path d="M0,0 C-5,-10 -30,-22 -46,-12 C-50,0 -40,15 -20,15 C-10,10 0,0 0,0 Z" 
          fill="url(#pinkDots)"
          opacity="0.8"/>
          
    <path d="M0,0 C5,-10 30,-22 46,-12 C50,0 40,15 20,15 C10,10 0,0 0,0 Z" 
          fill="url(#pinkDots)"
          opacity="0.8"/>
    
    <!-- Hindwings -->
    <path d="M0,0 C-5,5 -20,15 -30,25 C-35,20 -25,5 -15,5 C-5,2 0,0 0,0 Z" 
          fill="url(#pinkWing)" 
          stroke="#330011" 
          stroke-width="0.3"
          opacity="0.9"
          filter="url(#shadow)"/>
    
    <path d="M0,0 C5,5 20,15 30,25 C35,20 25,5 15,5 C5,2 0,0 0,0 Z" 
          fill="url(#pinkWing)" 
          stroke="#330011" 
          stroke-width="0.3"
          opacity="0.9"
          filter="url(#shadow)"/>
    
    <!-- White Border on Wings -->
    <path d="M-25,-5 C-30,-2 -35,5 -30,10 C-25,12 -22,10 -20,8" 
          stroke="white" 
          stroke-width="1.5" 
          fill="none"
          opacity="0.7"/>
          
    <path d="M25,-5 C30,-2 35,5 30,10 C25,12 22,10 20,8" 
          stroke="white" 
          stroke-width="1.5" 
          fill="none"
          opacity="0.7"/>
  </g>
</svg>
