<svg xmlns="http://www.w3.org/2000/svg" viewBox="-80 -60 160 120">
  <!-- Level 10: Legendary French Monarch Butterfly -->
  <defs>
    <linearGradient id="blueWing" x1="0%" y1="0%" x2="100%" y2="100%">
      <stop offset="0%" stop-color="#0055A4"/>
      <stop offset="50%" stop-color="#0066CC"/>
      <stop offset="100%" stop-color="#003366"/>
    </linearGradient>
    <linearGradient id="redWing" x1="0%" y1="0%" x2="100%" y2="100%">
      <stop offset="0%" stop-color="#EF4135"/>
      <stop offset="50%" stop-color="#CC0000"/>
      <stop offset="100%" stop-color="#990000"/>
    </linearGradient>
    <filter id="shadow" x="-20%" y="-20%" width="140%" height="140%">
      <feGaussianBlur in="SourceAlpha" stdDeviation="2"/>
      <feOffset dx="1" dy="1" result="offsetblur"/>
      <feComponentTransfer>
        <feFuncA type="linear" slope="0.5"/>
      </feComponentTransfer>
      <feMerge>
        <feMergeNode/>
        <feMergeNode in="SourceGraphic"/>
      </feMerge>
    </filter>
    <filter id="glow" x="-50%" y="-50%" width="200%" height="200%">
      <feGaussianBlur stdDeviation="2.5" result="blur"/>
      <feFlood flood-color="#FFD700" flood-opacity="0.5" result="glowColor"/>
      <feComposite in="glowColor" in2="blur" operator="in" result="softGlow"/>
      <feComposite in="SourceGraphic" in2="softGlow" operator="over"/>
    </filter>
    <filter id="innerGlow" x="-10%" y="-10%" width="120%" height="120%">
      <feGaussianBlur stdDeviation="1" result="blur"/>
      <feFlood flood-color="white" flood-opacity="0.8" result="glowColor"/>
      <feComposite in="glowColor" in2="blur" operator="in" result="softGlow"/>
      <feComposite in="SourceGraphic" in2="softGlow" operator="over"/>
    </filter>
    <radialGradient id="centerGlow" cx="0.5" cy="0.5" r="0.5">
      <stop offset="0%" stop-color="#FFFFFF" stop-opacity="0.9"/>
      <stop offset="100%" stop-color="#FFFFFF" stop-opacity="0"/>
    </radialGradient>
    <pattern id="fleurDeLis" patternUnits="userSpaceOnUse" width="20" height="20">
      <path d="M10,2 C8,5 5,8 5,12 C5,15 7,17 10,17 C13,17 15,15 15,12 C15,8 12,5 10,2 Z" fill="#FFC904" stroke="#000" stroke-width="0.5"/>
      <path d="M10,4 C9,6 7,8 7,12 C7,14 8,15 10,15 C12,15 13,14 13,12 C13,8 11,6 10,4 Z" fill="none" stroke="#000" stroke-width="0.3"/>
      <path d="M7,13 L5,18 M13,13 L15,18 M5,18 L15,18 L10,20 Z" fill="#FFC904" stroke="#000" stroke-width="0.5"/>
    </pattern>
  </defs>
  
  <!-- Body -->
  <g transform="translate(0,0)" filter="url(#glow)">
    <!-- Butterfly Body -->
    <ellipse cx="0" cy="0" rx="4.5" ry="22" fill="#111111"/>
    <ellipse cx="0" cy="-16" rx="4" ry="6" fill="#222222"/> <!-- Thorax -->
    
    <!-- Antennae -->
    <path d="M0,-20 Q-9,-30 -14,-42" fill="none" stroke="#111111" stroke-width="1"/>
    <path d="M0,-20 Q9,-30 14,-42" fill="none" stroke="#111111" stroke-width="1"/>
    <circle cx="-14" cy="-42" r="1.5" fill="#111111"/>
    <circle cx="14" cy="-42" r="1.5" fill="#111111"/>
    
    <!-- French Beret on Butterfly's Head -->
    <ellipse cx="0" cy="-22" rx="7" ry="3" fill="#D22B2B" transform="rotate(-15 0 -22)"/>
    
    <!-- Thin Mustache on Butterfly's Face -->
    <path d="M-5,-18 C-3,-17 -1,-17 0,-18 C1,-17 3,-17 5,-18" stroke="black" stroke-width="0.7" fill="none"/>
    
    <!-- French Flag Colored Forewings (Blue, White, Red) -->
    <!-- Left Forewing (Blue) -->
    <path d="M0,0 C-10,-18 -50,-35 -70,-15 C-75,5 -65,30 -35,30 C-20,18 0,0 0,0 Z" 
          fill="url(#blueWing)" 
          filter="url(#shadow)"
          stroke="#111111" 
          stroke-width="0.5"/>
    
    <!-- Right Forewing (Red) -->
    <path d="M0,0 C10,-18 50,-35 70,-15 C75,5 65,30 35,30 C20,18 0,0 0,0 Z" 
          fill="url(#redWing)" 
          filter="url(#shadow)"
          stroke="#111111" 
          stroke-width="0.5"/>
    
    <!-- White Middle Stripes (Creating French Flag Effect) -->
    <path d="M-20,-25 C-15,-20 -10,-10 -10,0 C-10,10 -15,20 -20,25" 
          stroke="white" 
          stroke-width="14" 
          fill="none"/>
          
    <path d="M20,-25 C15,-20 10,-10 10,0 C10,10 15,20 20,25" 
          stroke="white" 
          stroke-width="14" 
          fill="none"/>
    
    <!-- Black Borders and Veins -->
    <path d="M-2,0 C-15,-15 -40,-25 -70,-15" 
          stroke="black" 
          stroke-width="2" 
          fill="none"/>
          
    <path d="M2,0 C15,-15 40,-25 70,-15" 
          stroke="black" 
          stroke-width="2" 
          fill="none"/>
          
    <path d="M-2,0 L-35,-20 L-45,-15 M-2,0 L-45,-5 M-2,0 L-45,10 M-2,0 L-35,20" 
          stroke="black" 
          stroke-width="1.5" 
          fill="none"/>
    
    <path d="M2,0 L35,-20 L45,-15 M2,0 L45,-5 M2,0 L45,10 M2,0 L35,20" 
          stroke="black" 
          stroke-width="1.5" 
          fill="none"/>
    
    <!-- Fleur-de-lis Patterns -->
    <ellipse cx="-40" cy="-10" rx="8" ry="8" fill="url(#fleurDeLis)" opacity="0.9"/>
    <ellipse cx="40" cy="-10" rx="8" ry="8" fill="url(#fleurDeLis)" opacity="0.9"/>
    <ellipse cx="-25" cy="10" rx="6" ry="6" fill="url(#fleurDeLis)" opacity="0.9"/>
    <ellipse cx="25" cy="10" rx="6" ry="6" fill="url(#fleurDeLis)" opacity="0.9"/>
    
    <!-- Eiffel Tower Silhouette on Each Wing -->
    <path d="M-55,-5 L-60,10 L-55,10 L-57,20 L-53,20 L-55,30 M-55,-5 L-50,10 L-55,10 M-57,20 L-53,20" 
          stroke="#111111" 
          stroke-width="1.5" 
          fill="none"/>
          
    <path d="M55,-5 L60,10 L55,10 L57,20 L53,20 L55,30 M55,-5 L50,10 L55,10 M57,20 L53,20" 
          stroke="#111111" 
          stroke-width="1.5" 
          fill="none"/>
    
    <!-- White Spots -->
    <circle cx="-55" cy="-10" r="2.5" fill="white"/>
    <circle cx="-50" cy="-18" r="2" fill="white"/>
    <circle cx="-45" cy="-5" r="2" fill="white"/>
    <circle cx="-35" cy="-20" r="1.5" fill="white"/>
    <circle cx="-15" cy="-15" r="2" fill="white"/>
    
    <circle cx="55" cy="-10" r="2.5" fill="white"/>
    <circle cx="50" cy="-18" r="2" fill="white"/>
    <circle cx="45" cy="-5" r="2" fill="white"/>
    <circle cx="35" cy="-20" r="1.5" fill="white"/>
    <circle cx="15" cy="-15" r="2" fill="white"/>
    
    <!-- Hindwings with French Flag Colors -->
    <path d="M0,0 C-10,10 -25,30 -23,45 C-35,42 -40,30 -33,15 C-25,8 -8,2 0,0 Z" 
          fill="#0055A4" 
          stroke="#111111" 
          stroke-width="0.5"
          opacity="0.95"
          filter="url(#shadow)"/>
    
    <path d="M0,0 C10,10 25,30 23,45 C35,42 40,30 33,15 C25,8 8,2 0,0 Z" 
          fill="#EF4135" 
          stroke="#111111" 
          stroke-width="0.5"
          opacity="0.95"
          filter="url(#shadow)"/>
    
    <!-- White Center Stripe on Hindwings -->
    <path d="M-12,15 C-10,25 -10,35 -15,45" 
          stroke="white" 
          stroke-width="8" 
          fill="none"/>
          
    <path d="M12,15 C10,25 10,35 15,45" 
          stroke="white" 
          stroke-width="8" 
          fill="none"/>
    
    <!-- Center Mystical Glow -->
    <circle cx="0" cy="0" r="15" fill="url(#centerGlow)" opacity="0.6"/>
    
    <!-- French Text -->
    <path d="M-8,8 L-8,2 L-4,2 M-6,5 L-4,5 M0,8 L0,2 L4,2 L4,5 L0,5 L4,8" 
          stroke="#FFC904" 
          stroke-width="1" 
          fill="none"/>
    
    <!-- Gold Dust Effect (Sparkling) -->
    <g opacity="0.8">
      <circle cx="-60" cy="-8" r="0.8" fill="#FFD700"/>
      <circle cx="-55" cy="-15" r="0.6" fill="#FFD700"/>
      <circle cx="-50" cy="-5" r="0.7" fill="#FFD700"/>
      <circle cx="-45" cy="-12" r="0.5" fill="#FFD700"/>
      <circle cx="-40" cy="-18" r="0.6" fill="#FFD700"/>
      <circle cx="-35" cy="-10" r="0.7" fill="#FFD700"/>
      <circle cx="-30" cy="-5" r="0.5" fill="#FFD700"/>
      <circle cx="-25" cy="15" r="0.6" fill="#FFD700"/>
      <circle cx="-20" cy="20" r="0.7" fill="#FFD700"/>
      <circle cx="-15" cy="25" r="0.6" fill="#FFD700"/>
      
      <circle cx="60" cy="-8" r="0.8" fill="#FFD700"/>
      <circle cx="55" cy="-15" r="0.6" fill="#FFD700"/>
      <circle cx="50" cy="-5" r="0.7" fill="#FFD700"/>
      <circle cx="45" cy="-12" r="0.5" fill="#FFD700"/>
      <circle cx="40" cy="-18" r="0.6" fill="#FFD700"/>
      <circle cx="35" cy="-10" r="0.7" fill="#FFD700"/>
      <circle cx="30" cy="-5" r="0.5" fill="#FFD700"/>
      <circle cx="25" cy="15" r="0.6" fill="#FFD700"/>
      <circle cx="20" cy="20" r="0.7" fill="#FFD700"/>
      <circle cx="15" cy="25" r="0.6" fill="#FFD700"/>
    </g>
  </g>
</svg>
