<svg xmlns="http://www.w3.org/2000/svg" viewBox="-50 -40 100 80">
  <!-- Level 4: Emerald Hairstreak Inspired -->
  <defs>
    <linearGradient id="emeraldWing" x1="0%" y1="0%" x2="100%" y2="100%">
      <stop offset="0%" stop-color="#00AA55"/>
      <stop offset="50%" stop-color="#008844"/>
      <stop offset="100%" stop-color="#006633"/>
    </linearGradient>
    <filter id="shadow" x="-20%" y="-20%" width="140%" height="140%">
      <feGaussianBlur in="SourceAlpha" stdDeviation="2"/>
      <feOffset dx="1" dy="1" result="offsetblur"/>
      <feComponentTransfer>
        <feFuncA type="linear" slope="0.5"/>
      </feComponentTransfer>
      <feMerge>
        <feMergeNode/>
        <feMergeNode in="SourceGraphic"/>
      </feMerge>
    </filter>
    <pattern id="emeraldDots" width="8" height="8" patternUnits="userSpaceOnUse">
      <circle cx="4" cy="4" r="1" fill="#CCFFDD" opacity="0.9"/>
    </pattern>
  </defs>
  
  <!-- Body -->
  <g transform="translate(0,0)">
    <!-- Butterfly Body -->
    <ellipse cx="0" cy="0" rx="2.5" ry="13" fill="#003322"/>
    
    <!-- Antennae -->
    <path d="M0,-11 Q-5,-20 -8,-25" fill="none" stroke="#003322" stroke-width="0.8"/>
    <path d="M0,-11 Q5,-20 8,-25" fill="none" stroke="#003322" stroke-width="0.8"/>
    <circle cx="-8" cy="-25" r="1" fill="#003322"/>
    <circle cx="8" cy="-25" r="1" fill="#003322"/>
    
    <!-- Iridescent Forewings -->
    <path d="M0,0 C-5,-10 -30,-22 -45,-12 C-48,0 -38,15 -20,15 C-10,10 0,0 0,0 Z" 
          fill="url(#emeraldWing)" 
          filter="url(#shadow)"
          stroke="#003322" 
          stroke-width="0.3"/>
    
    <path d="M0,0 C5,-10 30,-22 45,-12 C48,0 38,15 20,15 C10,10 0,0 0,0 Z" 
          fill="url(#emeraldWing)" 
          filter="url(#shadow)"
          stroke="#003322" 
          stroke-width="0.3"/>
    
    <!-- Wing Patterns - Dots -->
    <path d="M0,0 C-5,-10 -30,-22 -45,-12 C-48,0 -38,15 -20,15 C-10,10 0,0 0,0 Z" 
          fill="url(#emeraldDots)"/>
          
    <path d="M0,0 C5,-10 30,-22 45,-12 C48,0 38,15 20,15 C10,10 0,0 0,0 Z" 
          fill="url(#emeraldDots)"/>
    
    <!-- Wing Veins -->
    <path d="M-2,0 L-20,-5 M-2,0 L-25,0 M-2,0 L-20,5 M-2,0 L-15,10" 
          stroke="#003322" 
          stroke-width="0.3" 
          fill="none"/>
    
    <path d="M2,0 L20,-5 M2,0 L25,0 M2,0 L20,5 M2,0 L15,10" 
          stroke="#003322" 
          stroke-width="0.3" 
          fill="none"/>
    
    <!-- Hindwings with small "tails" -->
    <path d="M0,0 C-5,5 -15,15 -15,25 C-25,28 -30,22 -20,15 C-15,10 -5,2 0,0 Z" 
          fill="url(#emeraldWing)" 
          stroke="#003322" 
          stroke-width="0.3"
          opacity="0.95"
          filter="url(#shadow)"/>
    
    <path d="M0,0 C5,5 15,15 15,25 C25,28 30,22 20,15 C15,10 5,2 0,0 Z" 
          fill="url(#emeraldWing)" 
          stroke="#003322" 
          stroke-width="0.3"
          opacity="0.95"
          filter="url(#shadow)"/>
          
    <!-- Hairstreak Lines -->
    <path d="M-15,15 L-12,25" 
          stroke="white" 
          stroke-width="1.2" 
          fill="none"/>
          
    <path d="M15,15 L12,25" 
          stroke="white" 
          stroke-width="1.2" 
          fill="none"/>
          
    <!-- Hindwing Pattern -->
    <path d="M0,0 C-5,5 -15,15 -15,25 C-25,28 -30,22 -20,15 C-15,10 -5,2 0,0 Z" 
          fill="url(#emeraldDots)"/>
          
    <path d="M0,0 C5,5 15,15 15,25 C25,28 30,22 20,15 C15,10 5,2 0,0 Z" 
          fill="url(#emeraldDots)"/>
  </g>
</svg>
