<svg xmlns="http://www.w3.org/2000/svg" viewBox="0 0 150 150">
  <!-- Character Body (White) -->
  <rect x="55" y="80" width="40" height="60" fill="white"/>
  
  <!-- Character Head (White) -->
  <rect x="50" y="40" width="50" height="40" fill="white"/>
  
  <!-- Black Mullet Hairstyle -->
  <rect x="50" y="40" width="50" height="15" fill="black"/>
  <rect x="45" y="40" width="5" height="25" fill="black"/>
  <rect x="100" y="40" width="10" height="30" fill="black"/>
  <rect x="110" y="45" width="5" height="20" fill="black"/>
  
  <!-- Face -->
  <rect x="65" y="60" width="5" height="5" fill="black"/> <!-- Left Eye -->
  <rect x="85" y="60" width="5" height="5" fill="black"/> <!-- Right Eye -->
  <rect x="70" y="75" width="15" height="5" fill="black"/> <!-- Mouth -->
  
  <!-- French Beret -->
  <rect x="50" y="30" width="50" height="10" fill="#D22B2B"/>
  <rect x="100" y="30" width="10" height="5" fill="#D22B2B"/>
  
  <!-- Striped Shirt (French style) -->
  <rect x="55" y="80" width="40" height="10" fill="#3333FF"/>
  <rect x="55" y="100" width="40" height="10" fill="#3333FF"/>
  <rect x="55" y="120" width="40" height="10" fill="#3333FF"/>
  
  <!-- Arms -->
  <rect x="35" y="80" width="20" height="10" fill="white"/> <!-- Left Arm -->
  <rect x="95" y="80" width="20" height="10" fill="white"/> <!-- Right Arm -->
  
  <!-- Butterfly Net -->
  <rect x="115" y="75" width="5" height="40" fill="#8B4513"/> <!-- Net Handle -->
  <path d="M120,75 L140,55 L160,75 L140,95 Z" fill="none" stroke="#8B4513" stroke-width="5"/> <!-- Net Frame -->
  <path d="M120,75 L140,55 L160,75 L140,95 Z" fill="#FFFFFF" fill-opacity="0.5"/> <!-- Net Mesh -->
  
  <!-- Legs -->
  <rect x="65" y="140" width="10" height="20" fill="#0000AA"/> <!-- Left Leg -->
  <rect x="80" y="140" width="10" height="20" fill="#0000AA"/> <!-- Right Leg -->
  
  <!-- Thin Black Mustache (French touch) -->
  <rect x="65" y="70" width="25" height="2" fill="black"/>
</svg>
