<svg xmlns="http://www.w3.org/2000/svg" viewBox="0 0 1200 800">
  <!-- Sky gradient -->
  <defs>
    <linearGradient id="skyGradient" x1="0%" y1="0%" x2="0%" y2="100%">
      <stop offset="0%" stop-color="#71b4e8"/>
      <stop offset="100%" stop-color="#c4e0f7"/>
    </linearGradient>
    
    <!-- Cloud pattern -->
    <pattern id="cloudPattern" width="400" height="200" patternUnits="userSpaceOnUse">
      <path d="M100,100 Q130,70 160,100 Q190,70 220,100 Q250,80 280,100 Q310,70 340,100 Q370,80 400,100 L400,200 L0,200 L0,100 Q30,80 60,100 Q90,70 100,100" fill="#ffffff" opacity="0.85"/>
    </pattern>
  </defs>
  
  <!-- Sky background -->
  <rect width="1200" height="800" fill="url(#skyGradient)"/>
  
  <!-- Clouds -->
  <rect width="1200" height="300" fill="url(#cloudPattern)" opacity="0.7"/>
  <rect x="200" y="80" width="1200" height="200" fill="url(#cloudPattern)" opacity="0.6"/>
  
  <!-- Distant mountains (leftmost) -->
  <path d="M0,320 L120,220 L180,280 L240,200 L350,320 L440,280 L500,320 L0,320" fill="#8e9aad" opacity="0.8"/>
  
  <!-- Distant mountains (rightmost) -->
  <path d="M700,320 L800,180 L860,220 L920,180 L980,240 L1060,190 L1120,240 L1200,200 L1200,320 L700,320" fill="#8e9aad" opacity="0.8"/>
  
  <!-- Mid mountains (left) -->
  <path d="M-50,400 L30,180 L120,300 L170,200 L250,300 L320,160 L400,320 L480,220 L550,400 L-50,400" fill="#4b5866"/>
  
  <!-- Mid mountains (right) -->
  <path d="M650,400 L750,180 L850,340 L930,160 L1050,360 L1130,220 L1250,400 L650,400" fill="#4b5866"/>
  
  <!-- Foreground mountains (left) -->
  <path d="M-100,450 L80,200 L180,350 L280,180 L400,380 L500,230 L600,450 L-100,450" fill="#2d3742"/>
  
  <!-- Foreground mountains (right) -->
  <path d="M600,450 L720,180 L800,350 L900,200 L1000,350 L1120,180 L1300,450 L600,450" fill="#2d3742"/>
  
  <!-- Green hills -->
  <path d="M0,800 L0,440 Q100,420 200,450 Q300,480 400,450 Q500,420 600,450 Q700,480 800,460 Q900,440 1000,470 Q1100,490 1200,450 L1200,800 Z" fill="#4a7c3a"/>
  
  <!-- Light green meadow -->
  <path d="M0,800 L0,520 Q150,500 300,530 Q500,550 700,520 Q900,500 1100,540 Q1150,550 1200,530 L1200,800 Z" fill="#6ba84d"/>
  
  <!-- Flower field gradient -->
  <defs>
    <linearGradient id="flowerGradient" x1="0%" y1="0%" x2="0%" y2="100%">
      <stop offset="0%" stop-color="#9ed15a"/>
      <stop offset="100%" stop-color="#83b349"/>
    </linearGradient>
  </defs>
  
  <!-- Flower field -->
  <path d="M0,800 L0,580 Q200,560 400,590 Q600,610 800,580 Q1000,560 1200,590 L1200,800 Z" fill="url(#flowerGradient)"/>
  
  <!-- Big yellow flowers -->
  <g>
    <!-- Yellow flower 1 -->
    <circle cx="150" cy="640" r="10" fill="#ffd700"/>
    <circle cx="145" cy="635" r="3" fill="#ff8c00"/>
    <path d="M138,628 Q145,640 152,628" stroke="#7cac56" stroke-width="2" fill="none"/>
    
    <!-- Yellow flower 2 -->
    <circle cx="230" cy="670" r="12" fill="#ffd700"/>
    <circle cx="230" cy="670" r="3" fill="#ff8c00"/>
    <path d="M230,685 Q225,670 215,665" stroke="#7cac56" stroke-width="2" fill="none"/>
    
    <!-- Yellow flower 3 -->
    <circle cx="320" cy="650" r="11" fill="#ffd700"/>
    <circle cx="320" cy="650" r="3" fill="#ff8c00"/>
    <path d="M320,665 Q330,655 335,645" stroke="#7cac56" stroke-width="2" fill="none"/>
    
    <!-- Yellow flower 4 -->
    <circle cx="420" cy="680" r="12" fill="#ffd700"/>
    <circle cx="420" cy="680" r="3" fill="#ff8c00"/>
    <path d="M410,690 Q420,680 430,690" stroke="#7cac56" stroke-width="2" fill="none"/>
    
    <!-- Yellow flower 5 -->
    <circle cx="520" cy="650" r="13" fill="#ffd700"/>
    <circle cx="520" cy="650" r="4" fill="#ff8c00"/>
    <path d="M520,665 Q510,655 505,645" stroke="#7cac56" stroke-width="2" fill="none"/>
    
    <!-- Yellow flower 6 -->
    <circle cx="620" cy="670" r="11" fill="#ffd700"/>
    <circle cx="620" cy="670" r="3" fill="#ff8c00"/>
    <path d="M620,685 Q630,675 640,675" stroke="#7cac56" stroke-width="2" fill="none"/>
    
    <!-- Yellow flower 7 -->
    <circle cx="720" cy="650" r="12" fill="#ffd700"/>
    <circle cx="720" cy="650" r="3" fill="#ff8c00"/>
    <path d="M720,665 Q710,655 700,655" stroke="#7cac56" stroke-width="2" fill="none"/>
    
    <!-- Yellow flower 8 -->
    <circle cx="820" cy="680" r="13" fill="#ffd700"/>
    <circle cx="820" cy="680" r="4" fill="#ff8c00"/>
    <path d="M810,690 Q820,680 830,690" stroke="#7cac56" stroke-width="2" fill="none"/>
    
    <!-- Yellow flower 9 -->
    <circle cx="920" cy="655" r="11" fill="#ffd700"/>
    <circle cx="920" cy="655" r="3" fill="#ff8c00"/>
    <path d="M920,670 Q930,660 940,660" stroke="#7cac56" stroke-width="2" fill="none"/>
    
    <!-- Yellow flower 10 -->
    <circle cx="1020" cy="675" r="12" fill="#ffd700"/>
    <circle cx="1020" cy="675" r="3" fill="#ff8c00"/>
    <path d="M1020,690 Q1010,680 1000,680" stroke="#7cac56" stroke-width="2" fill="none"/>
    
    <!-- Pink flower 1 -->
    <circle cx="200" cy="660" r="8" fill="#ff9cce"/>
    <circle cx="200" cy="660" r="2" fill="#ffff00"/>
    <path d="M200,670 Q210,665 215,655" stroke="#7cac56" stroke-width="2" fill="none"/>
    
    <!-- Pink flower 2 -->
    <circle cx="380" cy="650" r="9" fill="#ff9cce"/>
    <circle cx="380" cy="650" r="2" fill="#ffff00"/>
    <path d="M380,660 Q370,655 365,645" stroke="#7cac56" stroke-width="2" fill="none"/>
    
    <!-- Pink flower 3 -->
    <circle cx="570" cy="680" r="8" fill="#ff9cce"/>
    <circle cx="570" cy="680" r="2" fill="#ffff00"/>
    <path d="M570,690 Q580,685 585,675" stroke="#7cac56" stroke-width="2" fill="none"/>
    
    <!-- Pink flower 4 -->
    <circle cx="780" cy="660" r="9" fill="#ff9cce"/>
    <circle cx="780" cy="660" r="2" fill="#ffff00"/>
    <path d="M780,670 Q770,665 765,655" stroke="#7cac56" stroke-width="2" fill="none"/>
    
    <!-- Pink flower 5 -->
    <circle cx="970" cy="685" r="8" fill="#ff9cce"/>
    <circle cx="970" cy="685" r="2" fill="#ffff00"/>
    <path d="M970,695 Q980,690 985,680" stroke="#7cac56" stroke-width="2" fill="none"/>
    
    <!-- Small background flowers (dots) -->
    <g opacity="0.7">
      <circle cx="100" cy="650" r="2" fill="#fceb4f"/>
      <circle cx="120" cy="670" r="2" fill="#fceb4f"/>
      <circle cx="140" cy="640" r="2" fill="#fceb4f"/>
      <circle cx="280" cy="650" r="2" fill="#fceb4f"/>
      <circle cx="320" cy="670" r="2" fill="#fceb4f"/>
      <circle cx="500" cy="650" r="2" fill="#fceb4f"/>
      <circle cx="550" cy="670" r="2" fill="#fceb4f"/>
      <circle cx="600" cy="650" r="2" fill="#fceb4f"/>
      <circle cx="650" cy="680" r="2" fill="#fceb4f"/>
      <circle cx="700" cy="660" r="2" fill="#fceb4f"/>
      <circle cx="750" cy="670" r="2" fill="#fceb4f"/>
      <circle cx="850" cy="680" r="2" fill="#fceb4f"/>
      <circle cx="900" cy="660" r="2" fill="#fceb4f"/>
      <circle cx="950" cy="670" r="2" fill="#fceb4f"/>
      <circle cx="1050" cy="680" r="2" fill="#fceb4f"/>
      <circle cx="1100" cy="660" r="2" fill="#fceb4f"/>
    </g>
  </g>
  
  <!-- Small house (simplified) -->
  <rect x="180" y="520" width="30" height="25" fill="#f5f5f5"/>
  <path d="M175,520 L215,520 L195,500 Z" fill="#d35c37"/>
  
  <!-- Larger house (simplified) -->
  <rect x="120" y="530" width="40" height="30" fill="#f5f5f5"/>
  <path d="M110,530 L170,530 L140,505 Z" fill="#d35c37"/>
  
  <!-- Path -->
  <path d="M160,565 C200,580 350,585 400,600 S500,620 550,700" stroke="#d2c599" stroke-width="3" fill="none"/>
</svg>
