<svg xmlns="http://www.w3.org/2000/svg" viewBox="0 0 1200 800">
  <!-- Sky gradient -->
  <defs>
    <linearGradient id="skyGradient" x1="0%" y1="0%" x2="0%" y2="100%">
      <stop offset="0%" stop-color="#a5cdee"/>
      <stop offset="100%" stop-color="#d9ebfa"/>
    </linearGradient>
    
    <!-- Cloud pattern -->
    <pattern id="cloudPattern" width="400" height="200" patternUnits="userSpaceOnUse">
      <path d="M100,100 Q130,70 160,100 Q190,70 220,100 Q250,80 280,100 Q310,70 340,100 Q370,80 400,100 L400,200 L0,200 L0,100 Q30,80 60,100 Q90,70 100,100" fill="#ffffff" opacity="0.9"/>
    </pattern>
  </defs>
  
  <!-- Sky background -->
  <rect width="1200" height="800" fill="url(#skyGradient)"/>
  
  <!-- Clouds -->
  <rect width="1200" height="300" fill="url(#cloudPattern)" opacity="0.8"/>
  <rect x="-200" y="150" width="1200" height="200" fill="url(#cloudPattern)" opacity="0.7"/>
  <rect x="300" y="50" width="1200" height="200" fill="url(#cloudPattern)" opacity="0.9"/>
  
  <!-- Distant city skyline -->
  <rect x="0" y="420" width="1200" height="50" fill="#e0e0e0" opacity="0.6"/>
  <rect x="100" y="400" width="20" height="20" fill="#d0d0d0" opacity="0.7"/>
  <rect x="140" y="390" width="15" height="30" fill="#d0d0d0" opacity="0.7"/>
  <rect x="170" y="400" width="25" height="20" fill="#d0d0d0" opacity="0.7"/>
  <rect x="210" y="380" width="18" height="40" fill="#d0d0d0" opacity="0.7"/>
  <rect x="240" y="390" width="30" height="30" fill="#d0d0d0" opacity="0.7"/>
  <rect x="300" y="385" width="20" height="35" fill="#d0d0d0" opacity="0.7"/>
  <rect x="340" y="395" width="25" height="25" fill="#d0d0d0" opacity="0.7"/>
  <rect x="380" y="375" width="15" height="45" fill="#d0d0d0" opacity="0.7"/>
  <rect x="820" y="400" width="20" height="20" fill="#d0d0d0" opacity="0.7"/>
  <rect x="860" y="390" width="15" height="30" fill="#d0d0d0" opacity="0.7"/>
  <rect x="890" y="400" width="25" height="20" fill="#d0d0d0" opacity="0.7"/>
  <rect x="930" y="380" width="18" height="40" fill="#d0d0d0" opacity="0.7"/>
  <rect x="960" y="390" width="30" height="30" fill="#d0d0d0" opacity="0.7"/>
  <rect x="1000" y="385" width="20" height="35" fill="#d0d0d0" opacity="0.7"/>
  <rect x="1040" y="395" width="25" height="25" fill="#d0d0d0" opacity="0.7"/>
  <rect x="1080" y="375" width="15" height="45" fill="#d0d0d0" opacity="0.7"/>
  
  <!-- City skyline replacing the Eiffel Tower -->
  <rect x="470" y="370" width="30" height="50" fill="#d0d0d0" opacity="0.8"/>
  <rect x="510" y="360" width="25" height="60" fill="#d0d0d0" opacity="0.8"/>
  <rect x="545" y="380" width="40" height="40" fill="#d0d0d0" opacity="0.8"/>
  <rect x="595" y="350" width="20" height="70" fill="#d0d0d0" opacity="0.8"/>
  <rect x="625" y="370" width="35" height="50" fill="#d0d0d0" opacity="0.8"/>
  <rect x="670" y="360" width="28" height="60" fill="#d0d0d0" opacity="0.8"/>
  
  <!-- Additional distant buildings to fill the gap -->
  <rect x="500" y="385" width="15" height="35" fill="#e0e0e0" opacity="0.6"/>
  <rect x="525" y="390" width="12" height="30" fill="#e0e0e0" opacity="0.6"/>
  <rect x="565" y="375" width="20" height="45" fill="#e0e0e0" opacity="0.6"/>
  <rect x="615" y="390" width="30" height="30" fill="#e0e0e0" opacity="0.6"/>
  <rect x="655" y="380" width="18" height="40" fill="#e0e0e0" opacity="0.6"/>
  
  <!-- Left tree -->
  <ellipse cx="200" cy="430" rx="80" ry="70" fill="#568b3e"/>
  <ellipse cx="200" cy="390" rx="70" ry="60" fill="#64a246"/>
  <rect x="190" y="430" width="20" height="50" fill="#7d5d4c"/>
  
  <!-- Right tree -->
  <ellipse cx="1000" cy="440" rx="70" ry="60" fill="#568b3e"/>
  <ellipse cx="1000" cy="400" rx="60" ry="50" fill="#64a246"/>
  <rect x="990" y="440" width="20" height="40" fill="#7d5d4c"/>
  
  <!-- Terrace floor -->
  <rect x="0" y="480" width="1200" height="320" fill="#6d4c37"/>
  
  <!-- Terrace wood planks -->
  <rect x="0" y="500" width="1200" height="10" fill="#5c3c27"/>
  <rect x="0" y="520" width="1200" height="10" fill="#5c3c27"/>
  <rect x="0" y="540" width="1200" height="10" fill="#5c3c27"/>
  <rect x="0" y="560" width="1200" height="10" fill="#5c3c27"/>
  <rect x="0" y="580" width="1200" height="10" fill="#5c3c27"/>
  <rect x="0" y="600" width="1200" height="10" fill="#5c3c27"/>
  <rect x="0" y="620" width="1200" height="10" fill="#5c3c27"/>
  <rect x="0" y="640" width="1200" height="10" fill="#5c3c27"/>
  <rect x="0" y="660" width="1200" height="10" fill="#5c3c27"/>
  <rect x="0" y="680" width="1200" height="10" fill="#5c3c27"/>
  <rect x="0" y="700" width="1200" height="10" fill="#5c3c27"/>
  <rect x="0" y="720" width="1200" height="10" fill="#5c3c27"/>
  <rect x="0" y="740" width="1200" height="10" fill="#5c3c27"/>
  <rect x="0" y="760" width="1200" height="10" fill="#5c3c27"/>
  <rect x="0" y="780" width="1200" height="10" fill="#5c3c27"/>
  
  <!-- Front railing -->
  <rect x="0" y="460" width="1200" height="20" fill="#f7f7f7"/>
  
  <!-- Potted plants along railing -->
  <ellipse cx="150" cy="450" rx="30" ry="15" fill="#f7f7f7"/>
  <path d="M130,450 C140,430 160,430 170,450" fill="#568b3e"/>
  
  <ellipse cx="350" cy="450" rx="30" ry="15" fill="#f7f7f7"/>
  <path d="M330,450 C340,430 360,430 370,450" fill="#568b3e"/>
  
  <ellipse cx="850" cy="450" rx="30" ry="15" fill="#f7f7f7"/>
  <path d="M830,450 C840,430 860,430 870,450" fill="#568b3e"/>
  
  <ellipse cx="1050" cy="450" rx="30" ry="15" fill="#f7f7f7"/>
  <path d="M1030,450 C1040,430 1060,430 1070,450" fill="#568b3e"/>
  
  <!-- Lantern lights on poles -->
  <rect x="230" y="390" width="5" height="70" fill="#333333"/>
  <rect x="222" y="390" width="21" height="10" fill="#333333"/>
  <rect x="225" y="380" width="15" height="10" fill="#e7d9a8"/>
  
  <rect x="450" y="390" width="5" height="70" fill="#333333"/>
  <rect x="442" y="390" width="21" height="10" fill="#333333"/>
  <rect x="445" y="380" width="15" height="10" fill="#e7d9a8"/>
  
  <rect x="750" y="390" width="5" height="70" fill="#333333"/>
  <rect x="742" y="390" width="21" height="10" fill="#333333"/>
  <rect x="745" y="380" width="15" height="10" fill="#e7d9a8"/>
  
  <rect x="970" y="390" width="5" height="70" fill="#333333"/>
  <rect x="962" y="390" width="21" height="10" fill="#333333"/>
  <rect x="965" y="380" width="15" height="10" fill="#e7d9a8"/>
  
  <!-- Tables (simplified) -->
  <!-- Table 1 -->
  <ellipse cx="200" cy="550" rx="40" ry="40" fill="#ffffff"/>
  <ellipse cx="200" cy="550" rx="35" ry="35" fill="#f5f5f5" stroke="#eeeeee" stroke-width="1"/>
  
  <!-- Table 2 -->
  <ellipse cx="400" cy="550" rx="40" ry="40" fill="#ffffff"/>
  <ellipse cx="400" cy="550" rx="35" ry="35" fill="#f5f5f5" stroke="#eeeeee" stroke-width="1"/>
  
  <!-- Table 3 -->
  <ellipse cx="600" cy="550" rx="40" ry="40" fill="#ffffff"/>
  <ellipse cx="600" cy="550" rx="35" ry="35" fill="#f5f5f5" stroke="#eeeeee" stroke-width="1"/>
  
  <!-- Table 4 -->
  <ellipse cx="800" cy="550" rx="40" ry="40" fill="#ffffff"/>
  <ellipse cx="800" cy="550" rx="35" ry="35" fill="#f5f5f5" stroke="#eeeeee" stroke-width="1"/>
  
  <!-- Table 5 -->
  <ellipse cx="1000" cy="550" rx="40" ry="40" fill="#ffffff"/>
  <ellipse cx="1000" cy="550" rx="35" ry="35" fill="#f5f5f5" stroke="#eeeeee" stroke-width="1"/>
  
  <!-- Table 6 -->
  <ellipse cx="200" cy="700" rx="40" ry="40" fill="#ffffff"/>
  <ellipse cx="200" cy="700" rx="35" ry="35" fill="#f5f5f5" stroke="#eeeeee" stroke-width="1"/>
  
  <!-- Table 7 -->
  <ellipse cx="400" cy="700" rx="40" ry="40" fill="#ffffff"/>
  <ellipse cx="400" cy="700" rx="35" ry="35" fill="#f5f5f5" stroke="#eeeeee" stroke-width="1"/>
  
  <!-- Table 8 -->
  <ellipse cx="600" cy="700" rx="40" ry="40" fill="#ffffff"/>
  <ellipse cx="600" cy="700" rx="35" ry="35" fill="#f5f5f5" stroke="#eeeeee" stroke-width="1"/>
  
  <!-- Table 9 -->
  <ellipse cx="800" cy="700" rx="40" ry="40" fill="#ffffff"/>
  <ellipse cx="800" cy="700" rx="35" ry="35" fill="#f5f5f5" stroke="#eeeeee" stroke-width="1"/>
  
  <!-- Table 10 -->
  <ellipse cx="1000" cy="700" rx="40" ry="40" fill="#ffffff"/>
  <ellipse cx="1000" cy="700" rx="35" ry="35" fill="#f5f5f5" stroke="#eeeeee" stroke-width="1"/>
  
  <!-- Chairs -->
  <!-- Chairs for Table 1 -->
  <ellipse cx="150" cy="550" rx="15" ry="15" fill="#bb8c5f" stroke="#a67c51" stroke-width="1"/>
  <ellipse cx="200" cy="510" rx="15" ry="15" fill="#bb8c5f" stroke="#a67c51" stroke-width="1"/>
  <ellipse cx="250" cy="550" rx="15" ry="15" fill="#bb8c5f" stroke="#a67c51" stroke-width="1"/>
  <ellipse cx="200" cy="590" rx="15" ry="15" fill="#bb8c5f" stroke="#a67c51" stroke-width="1"/>
  
  <!-- Chairs for Table 2 -->
  <ellipse cx="350" cy="550" rx="15" ry="15" fill="#bb8c5f" stroke="#a67c51" stroke-width="1"/>
  <ellipse cx="400" cy="510" rx="15" ry="15" fill="#bb8c5f" stroke="#a67c51" stroke-width="1"/>
  <ellipse cx="450" cy="550" rx="15" ry="15" fill="#bb8c5f" stroke="#a67c51" stroke-width="1"/>
  <ellipse cx="400" cy="590" rx="15" ry="15" fill="#bb8c5f" stroke="#a67c51" stroke-width="1"/>
  
  <!-- Chairs for Table 3 -->
  <ellipse cx="550" cy="550" rx="15" ry="15" fill="#bb8c5f" stroke="#a67c51" stroke-width="1"/>
  <ellipse cx="600" cy="510" rx="15" ry="15" fill="#bb8c5f" stroke="#a67c51" stroke-width="1"/>
  <ellipse cx="650" cy="550" rx="15" ry="15" fill="#bb8c5f" stroke="#a67c51" stroke-width="1"/>
  <ellipse cx="600" cy="590" rx="15" ry="15" fill="#bb8c5f" stroke="#a67c51" stroke-width="1"/>
  
  <!-- Chairs for Table 4 -->
  <ellipse cx="750" cy="550" rx="15" ry="15" fill="#bb8c5f" stroke="#a67c51" stroke-width="1"/>
  <ellipse cx="800" cy="510" rx="15" ry="15" fill="#bb8c5f" stroke="#a67c51" stroke-width="1"/>
  <ellipse cx="850" cy="550" rx="15" ry="15" fill="#bb8c5f" stroke="#a67c51" stroke-width="1"/>
  <ellipse cx="800" cy="590" rx="15" ry="15" fill="#bb8c5f" stroke="#a67c51" stroke-width="1"/>
  
  <!-- Chairs for Table 5 -->
  <ellipse cx="950" cy="550" rx="15" ry="15" fill="#bb8c5f" stroke="#a67c51" stroke-width="1"/>
  <ellipse cx="1000" cy="510" rx="15" ry="15" fill="#bb8c5f" stroke="#a67c51" stroke-width="1"/>
  <ellipse cx="1050" cy="550" rx="15" ry="15" fill="#bb8c5f" stroke="#a67c51" stroke-width="1"/>
  <ellipse cx="1000" cy="590" rx="15" ry="15" fill="#bb8c5f" stroke="#a67c51" stroke-width="1"/>
  
  <!-- Chairs for Table 6 -->
  <ellipse cx="150" cy="700" rx="15" ry="15" fill="#bb8c5f" stroke="#a67c51" stroke-width="1"/>
  <ellipse cx="200" cy="660" rx="15" ry="15" fill="#bb8c5f" stroke="#a67c51" stroke-width="1"/>
  <ellipse cx="250" cy="700" rx="15" ry="15" fill="#bb8c5f" stroke="#a67c51" stroke-width="1"/>
  <ellipse cx="200" cy="740" rx="15" ry="15" fill="#bb8c5f" stroke="#a67c51" stroke-width="1"/>
  
  <!-- Chairs for Table 7 -->
  <ellipse cx="350" cy="700" rx="15" ry="15" fill="#bb8c5f" stroke="#a67c51" stroke-width="1"/>
  <ellipse cx="400" cy="660" rx="15" ry="15" fill="#bb8c5f" stroke="#a67c51" stroke-width="1"/>
  <ellipse cx="450" cy="700" rx="15" ry="15" fill="#bb8c5f" stroke="#a67c51" stroke-width="1"/>
  <ellipse cx="400" cy="740" rx="15" ry="15" fill="#bb8c5f" stroke="#a67c51" stroke-width="1"/>
  
  <!-- Chairs for Table 8 -->
  <ellipse cx="550" cy="700" rx="15" ry="15" fill="#bb8c5f" stroke="#a67c51" stroke-width="1"/>
  <ellipse cx="600" cy="660" rx="15" ry="15" fill="#bb8c5f" stroke="#a67c51" stroke-width="1"/>
  <ellipse cx="650" cy="700" rx="15" ry="15" fill="#bb8c5f" stroke="#a67c51" stroke-width="1"/>
  <ellipse cx="600" cy="740" rx="15" ry="15" fill="#bb8c5f" stroke="#a67c51" stroke-width="1"/>
  
  <!-- Chairs for Table 9 -->
  <ellipse cx="750" cy="700" rx="15" ry="15" fill="#bb8c5f" stroke="#a67c51" stroke-width="1"/>
  <ellipse cx="800" cy="660" rx="15" ry="15" fill="#bb8c5f" stroke="#a67c51" stroke-width="1"/>
  <ellipse cx="850" cy="700" rx="15" ry="15" fill="#bb8c5f" stroke="#a67c51" stroke-width="1"/>
  <ellipse cx="800" cy="740" rx="15" ry="15" fill="#bb8c5f" stroke="#a67c51" stroke-width="1"/>
  
  <!-- Chairs for Table 10 -->
  <ellipse cx="950" cy="700" rx="15" ry="15" fill="#bb8c5f" stroke="#a67c51" stroke-width="1"/>
  <ellipse cx="1000" cy="660" rx="15" ry="15" fill="#bb8c5f" stroke="#a67c51" stroke-width="1"/>
  <ellipse cx="1050" cy="700" rx="15" ry="15" fill="#bb8c5f" stroke="#a67c51" stroke-width="1"/>
  <ellipse cx="1000" cy="740" rx="15" ry="15" fill="#bb8c5f" stroke="#a67c51" stroke-width="1"/>
  
  <!-- Table settings (simplified) -->
  <!-- Table settings 1 -->
  <circle cx="200" cy="550" r="15" fill="#ffffff" stroke="#eeeeee" stroke-width="0.5"/>
  <circle cx="190" cy="540" r="3" fill="#eeeeee"/>
  <circle cx="210" cy="540" r="3" fill="#eeeeee"/>
  <rect x="190" cy="555" width="20" height="3" fill="#cccccc"/>
  
  <!-- Table settings 2 -->
  <circle cx="400" cy="550" r="15" fill="#ffffff" stroke="#eeeeee" stroke-width="0.5"/>
  <circle cx="390" cy="540" r="3" fill="#eeeeee"/>
  <circle cx="410" cy="540" r="3" fill="#eeeeee"/>
  <rect x="390" cy="555" width="20" height="3" fill="#cccccc"/>
  
  <!-- Table settings 3 -->
  <circle cx="600" cy="550" r="15" fill="#ffffff" stroke="#eeeeee" stroke-width="0.5"/>
  <circle cx="590" cy="540" r="3" fill="#eeeeee"/>
  <circle cx="610" cy="540" r="3" fill="#eeeeee"/>
  <rect x="590" cy="555" width="20" height="3" fill="#cccccc"/>
  
  <!-- Table settings 4 -->
  <circle cx="800" cy="550" r="15" fill="#ffffff" stroke="#eeeeee" stroke-width="0.5"/>
  <circle cx="790" cy="540" r="3" fill="#eeeeee"/>
  <circle cx="810" cy="540" r="3" fill="#eeeeee"/>
  <rect x="790" cy="555" width="20" height="3" fill="#cccccc"/>
  
  <!-- Table settings 5 -->
  <circle cx="1000" cy="550" r="15" fill="#ffffff" stroke="#eeeeee" stroke-width="0.5"/>
  <circle cx="990" cy="540" r="3" fill="#eeeeee"/>
  <circle cx="1010" cy="540" r="3" fill="#eeeeee"/>
  <rect x="990" cy="555" width="20" height="3" fill="#cccccc"/>
  
  <!-- Table settings 6 -->
  <circle cx="200" cy="700" r="15" fill="#ffffff" stroke="#eeeeee" stroke-width="0.5"/>
  <circle cx="190" cy="690" r="3" fill="#eeeeee"/>
  <circle cx="210" cy="690" r="3" fill="#eeeeee"/>
  <rect x="190" cy="705" width="20" height="3" fill="#cccccc"/>
  
  <!-- Table settings 7 -->
  <circle cx="400" cy="700" r="15" fill="#ffffff" stroke="#eeeeee" stroke-width="0.5"/>
  <circle cx="390" cy="690" r="3" fill="#eeeeee"/>
  <circle cx="410" cy="690" r="3" fill="#eeeeee"/>
  <rect x="390" cy="705" width="20" height="3" fill="#cccccc"/>
  
  <!-- Table settings 8 -->
  <circle cx="600" cy="700" r="15" fill="#ffffff" stroke="#eeeeee" stroke-width="0.5"/>
  <circle cx="590" cy="690" r="3" fill="#eeeeee"/>
  <circle cx="610" cy="690" r="3" fill="#eeeeee"/>
  <rect x="590" cy="705" width="20" height="3" fill="#cccccc"/>
  
  <!-- Table settings 9 -->
  <circle cx="800" cy="700" r="15" fill="#ffffff" stroke="#eeeeee" stroke-width="0.5"/>
  <circle cx="790" cy="690" r="3" fill="#eeeeee"/>
  <circle cx="810" cy="690" r="3" fill="#eeeeee"/>
  <rect x="790" cy="705" width="20" height="3" fill="#cccccc"/>
  
  <!-- Table settings 10 -->
  <circle cx="1000" cy="700" r="15" fill="#ffffff" stroke="#eeeeee" stroke-width="0.5"/>
  <circle cx="990" cy="690" r="3" fill="#eeeeee"/>
  <circle cx="1010" cy="690" r="3" fill="#eeeeee"/>
  <rect x="990" cy="705" width="20" height="3" fill="#cccccc"/>
  
  <!-- Small lanterns on tables -->
  <circle cx="200" cy="550" r="3" fill="#e7d9a8"/>
  <circle cx="400" cy="550" r="3" fill="#e7d9a8"/>
  <circle cx="600" cy="550" r="3" fill="#e7d9a8"/>
  <circle cx="800" cy="550" r="3" fill="#e7d9a8"/>
  <circle cx="1000" cy="550" r="3" fill="#e7d9a8"/>
  <circle cx="200" cy="700" r="3" fill="#e7d9a8"/>
  <circle cx="400" cy="700" r="3" fill="#e7d9a8"/>
  <circle cx="600" cy="700" r="3" fill="#e7d9a8"/>
  <circle cx="800" cy="700" r="3" fill="#e7d9a8"/>
  <circle cx="1000" cy="700" r="3" fill="#e7d9a8"/>
</svg>
