<svg xmlns="http://www.w3.org/2000/svg" viewBox="-50 -40 100 80">
  <!-- Level 1: Common Blue Morpho Inspired -->
  <defs>
    <linearGradient id="blueWing" x1="0%" y1="0%" x2="100%" y2="100%">
      <stop offset="0%" stop-color="#0066CC"/>
      <stop offset="50%" stop-color="#5599FF"/>
      <stop offset="100%" stop-color="#0044AA"/>
    </linearGradient>
    <filter id="shadow" x="-20%" y="-20%" width="140%" height="140%">
      <feGaussianBlur in="SourceAlpha" stdDeviation="2"/>
      <feOffset dx="1" dy="1" result="offsetblur"/>
      <feComponentTransfer>
        <feFuncA type="linear" slope="0.5"/>
      </feComponentTransfer>
      <feMerge>
        <feMergeNode/>
        <feMergeNode in="SourceGraphic"/>
      </feMerge>
    </filter>
  </defs>
  
  <!-- Body -->
  <g transform="translate(0,0)">
    <!-- Butterfly Body -->
    <ellipse cx="0" cy="0" rx="2.5" ry="12" fill="#111111"/>
    
    <!-- Antennae -->
    <path d="M0,-10 Q-5,-20 -8,-25" fill="none" stroke="#111111" stroke-width="0.8"/>
    <path d="M0,-10 Q5,-20 8,-25" fill="none" stroke="#111111" stroke-width="0.8"/>
    <circle cx="-8" cy="-25" r="1" fill="#111111"/>
    <circle cx="8" cy="-25" r="1" fill="#111111"/>
    
    <!-- Wings -->
    <path d="M0,0 C-5,-10 -30,-20 -45,-10 C-50,0 -40,15 -20,15 C-10,10 0,0 0,0 Z" 
          fill="url(#blueWing)" 
          filter="url(#shadow)"
          stroke="#000033" 
          stroke-width="0.3"/>
    
    <path d="M0,0 C5,-10 30,-20 45,-10 C50,0 40,15 20,15 C10,10 0,0 0,0 Z" 
          fill="url(#blueWing)" 
          filter="url(#shadow)"
          stroke="#000033" 
          stroke-width="0.3"/>
    
    <!-- Wing Patterns - Basic Simple Veins -->
    <path d="M-2,0 L-20,-5 M-2,0 L-25,0 M-2,0 L-20,5 M-2,0 L-15,10" 
          stroke="#000033" 
          stroke-width="0.3" 
          fill="none"/>
    
    <path d="M2,0 L20,-5 M2,0 L25,0 M2,0 L20,5 M2,0 L15,10" 
          stroke="#000033" 
          stroke-width="0.3" 
          fill="none"/>
    
    <!-- Hindwings -->
    <path d="M0,0 C-5,5 -20,15 -30,25 C-35,20 -25,5 -15,5 C-5,2 0,0 0,0 Z" 
          fill="url(#blueWing)" 
          stroke="#000033" 
          stroke-width="0.3"
          opacity="0.9"
          filter="url(#shadow)"/>
    
    <path d="M0,0 C5,5 20,15 30,25 C35,20 25,5 15,5 C5,2 0,0 0,0 Z" 
          fill="url(#blueWing)" 
          stroke="#000033" 
          stroke-width="0.3"
          opacity="0.9"
          filter="url(#shadow)"/>
    
    <!-- Hindwing Patterns -->
    <path d="M-2,3 L-15,15 M-2,3 L-20,20" 
          stroke="#000033" 
          stroke-width="0.3" 
          fill="none"/>
    
    <path d="M2,3 L15,15 M2,3 L20,20" 
          stroke="#000033" 
          stroke-width="0.3" 
          fill="none"/>
  </g>
</svg>
