<svg xmlns="http://www.w3.org/2000/svg" viewBox="-50 -40 100 80">
  <!-- Level 3: Golden Swallowtail Inspired -->
  <defs>
    <linearGradient id="goldenWing" x1="0%" y1="0%" x2="100%" y2="100%">
      <stop offset="0%" stop-color="#FFDD00"/>
      <stop offset="60%" stop-color="#FFB700"/>
      <stop offset="100%" stop-color="#FF8800"/>
    </linearGradient>
    <filter id="shadow" x="-20%" y="-20%" width="140%" height="140%">
      <feGaussianBlur in="SourceAlpha" stdDeviation="2"/>
      <feOffset dx="1" dy="1" result="offsetblur"/>
      <feComponentTransfer>
        <feFuncA type="linear" slope="0.5"/>
      </feComponentTransfer>
      <feMerge>
        <feMergeNode/>
        <feMergeNode in="SourceGraphic"/>
      </feMerge>
    </filter>
  </defs>
  
  <!-- Body -->
  <g transform="translate(0,0)">
    <!-- Butterfly Body -->
    <ellipse cx="0" cy="0" rx="2.5" ry="14" fill="#222200"/>
    
    <!-- Antennae -->
    <path d="M0,-12 Q-5,-20 -8,-26" fill="none" stroke="#222200" stroke-width="0.8"/>
    <path d="M0,-12 Q5,-20 8,-26" fill="none" stroke="#222200" stroke-width="0.8"/>
    <circle cx="-8" cy="-26" r="1" fill="#222200"/>
    <circle cx="8" cy="-26" r="1" fill="#222200"/>
    
    <!-- Forewings -->
    <path d="M0,0 C-5,-10 -32,-24 -46,-12 C-50,0 -40,15 -20,15 C-10,10 0,0 0,0 Z" 
          fill="url(#goldenWing)" 
          filter="url(#shadow)"
          stroke="#222200" 
          stroke-width="0.3"/>
    
    <path d="M0,0 C5,-10 32,-24 46,-12 C50,0 40,15 20,15 C10,10 0,0 0,0 Z" 
          fill="url(#goldenWing)" 
          filter="url(#shadow)"
          stroke="#222200" 
          stroke-width="0.3"/>
    
    <!-- Wing Black Patterns - Swallowtail Stripes -->
    <path d="M-28,-5 L-18,-7 L-23,-2 L-17,0 L-22,5 L-15,8 L-30,12" 
          stroke="black" 
          stroke-width="2" 
          fill="none"/>
    
    <path d="M28,-5 L18,-7 L23,-2 L17,0 L22,5 L15,8 L30,12" 
          stroke="black" 
          stroke-width="2" 
          fill="none"/>
          
    <!-- Wing Veins -->
    <path d="M-2,0 L-20,-5 M-2,0 L-25,0 M-2,0 L-20,5 M-2,0 L-15,10" 
          stroke="#222200" 
          stroke-width="0.3" 
          fill="none"/>
    
    <path d="M2,0 L20,-5 M2,0 L25,0 M2,0 L20,5 M2,0 L15,10" 
          stroke="#222200" 
          stroke-width="0.3" 
          fill="none"/>
    
    <!-- Hindwings with Swallowtail Extensions -->
    <path d="M0,0 C-5,5 -20,20 -20,30 C-30,32 -35,20 -35,15 C-30,15 -25,5 -15,5 C-5,2 0,0 0,0 Z" 
          fill="url(#goldenWing)" 
          stroke="#222200" 
          stroke-width="0.3"
          opacity="0.95"
          filter="url(#shadow)"/>
    
    <path d="M0,0 C5,5 20,20 20,30 C30,32 35,20 35,15 C30,15 25,5 15,5 C5,2 0,0 0,0 Z" 
          fill="url(#goldenWing)" 
          stroke="#222200" 
          stroke-width="0.3"
          opacity="0.95"
          filter="url(#shadow)"/>
          
    <!-- Black Border on Hindwings -->
    <path d="M-15,8 C-20,12 -22,22 -20,30" 
          stroke="black" 
          stroke-width="2" 
          fill="none"/>
          
    <path d="M15,8 C20,12 22,22 20,30" 
          stroke="black" 
          stroke-width="2" 
          fill="none"/>
          
    <!-- Hindwing Color Spots -->
    <circle cx="-25" cy="15" r="3" fill="#0055AA" stroke="black" stroke-width="0.5"/>
    <circle cx="25" cy="15" r="3" fill="#0055AA" stroke="black" stroke-width="0.5"/>
  </g>
</svg>
