<svg xmlns="http://www.w3.org/2000/svg" viewBox="-50 -40 100 80">
  <!-- Level 6: Teal Peacock Butterfly Inspired -->
  <defs>
    <linearGradient id="tealWing" x1="0%" y1="0%" x2="100%" y2="100%">
      <stop offset="0%" stop-color="#00CCCC"/>
      <stop offset="50%" stop-color="#008888"/>
      <stop offset="100%" stop-color="#006666"/>
    </linearGradient>
    <filter id="shadow" x="-20%" y="-20%" width="140%" height="140%">
      <feGaussianBlur in="SourceAlpha" stdDeviation="2"/>
      <feOffset dx="1" dy="1" result="offsetblur"/>
      <feComponentTransfer>
        <feFuncA type="linear" slope="0.5"/>
      </feComponentTransfer>
      <feMerge>
        <feMergeNode/>
        <feMergeNode in="SourceGraphic"/>
      </feMerge>
    </filter>
    <radialGradient id="eyespot" cx="0.5" cy="0.5" r="0.5">
      <stop offset="0%" stop-color="#003366"/>
      <stop offset="40%" stop-color="#0066CC"/>
      <stop offset="60%" stop-color="#66CCFF"/>
      <stop offset="80%" stop-color="#99FFFF"/>
      <stop offset="100%" stop-color="white"/>
    </radialGradient>
  </defs>
  
  <!-- Body -->
  <g transform="translate(0,0)">
    <!-- Butterfly Body -->
    <ellipse cx="0" cy="0" rx="3" ry="16" fill="#004444"/>
    
    <!-- Antennae -->
    <path d="M0,-14 Q-6,-23 -10,-30" fill="none" stroke="#004444" stroke-width="0.8"/>
    <path d="M0,-14 Q6,-23 10,-30" fill="none" stroke="#004444" stroke-width="0.8"/>
    <circle cx="-10" cy="-30" r="1" fill="#004444"/>
    <circle cx="10" cy="-30" r="1" fill="#004444"/>
    
    <!-- Forewings -->
    <path d="M0,0 C-5,-12 -35,-25 -48,-10 C-53,0 -45,18 -23,18 C-12,10 0,0 0,0 Z" 
          fill="url(#tealWing)" 
          filter="url(#shadow)"
          stroke="#004444" 
          stroke-width="0.4"/>
    
    <path d="M0,0 C5,-12 35,-25 48,-10 C53,0 45,18 23,18 C12,10 0,0 0,0 Z" 
          fill="url(#tealWing)" 
          filter="url(#shadow)"
          stroke="#004444" 
          stroke-width="0.4"/>
    
    <!-- Wing Veins -->
    <path d="M-2,0 L-25,-10 M-2,0 L-30,0 M-2,0 L-25,10 M-15,10 L-20,18" 
          stroke="#004444" 
          stroke-width="0.4" 
          fill="none"/>
    
    <path d="M2,0 L25,-10 M2,0 L30,0 M2,0 L25,10 M15,10 L20,18" 
          stroke="#004444" 
          stroke-width="0.4" 
          fill="none"/>
    
    <!-- Wing Edge Pattern -->
    <path d="M-40,-8 Q-45,-5 -50,0 Q-45,5 -40,8" 
          stroke="#AAFFFF" 
          stroke-width="1.2" 
          fill="none"/>
          
    <path d="M40,-8 Q45,-5 50,0 Q45,5 40,8" 
          stroke="#AAFFFF" 
          stroke-width="1.2" 
          fill="none"/>
    
    <!-- Peacock Eyespots on Forewings -->
    <circle cx="-32" cy="-5" r="6" fill="url(#eyespot)" stroke="#004444" stroke-width="0.5"/>
    <circle cx="-32" cy="-5" r="3" fill="#000033" stroke="#66CCFF" stroke-width="0.5"/>
    <circle cx="-32" cy="-5" r="1" fill="#AAFFFF"/>
    
    <circle cx="32" cy="-5" r="6" fill="url(#eyespot)" stroke="#004444" stroke-width="0.5"/>
    <circle cx="32" cy="-5" r="3" fill="#000033" stroke="#66CCFF" stroke-width="0.5"/>
    <circle cx="32" cy="-5" r="1" fill="#AAFFFF"/>
    
    <!-- Hindwings with Unique Shape -->
    <path d="M0,0 C-5,5 -15,20 -13,30 C-20,28 -25,20 -20,10 C-15,8 -5,2 0,0 Z" 
          fill="url(#tealWing)" 
          stroke="#004444" 
          stroke-width="0.4"
          opacity="0.95"
          filter="url(#shadow)"/>
    
    <path d="M0,0 C5,5 15,20 13,30 C20,28 25,20 20,10 C15,8 5,2 0,0 Z" 
          fill="url(#tealWing)" 
          stroke="#004444" 
          stroke-width="0.4"
          opacity="0.95"
          filter="url(#shadow)"/>
          
    <!-- Smaller Eyespots on Hindwings -->
    <circle cx="-15" cy="20" r="3" fill="url(#eyespot)" stroke="#004444" stroke-width="0.5"/>
    <circle cx="-15" cy="20" r="1.5" fill="#000033" stroke="#66CCFF" stroke-width="0.3"/>
    <circle cx="-15" cy="20" r="0.5" fill="#AAFFFF"/>
    
    <circle cx="15" cy="20" r="3" fill="url(#eyespot)" stroke="#004444" stroke-width="0.5"/>
    <circle cx="15" cy="20" r="1.5" fill="#000033" stroke="#66CCFF" stroke-width="0.3"/>
    <circle cx="15" cy="20" r="0.5" fill="#AAFFFF"/>
    
    <!-- Additional Detailing -->
    <path d="M-35,5 Q-25,10 -15,5" 
          stroke="#AAFFFF" 
          stroke-width="0.8" 
          fill="none"/>
          
    <path d="M35,5 Q25,10 15,5" 
          stroke="#AAFFFF" 
          stroke-width="0.8" 
          fill="none"/>
  </g>
</svg>
