<svg xmlns="http://www.w3.org/2000/svg" viewBox="-50 -40 100 80">
  <!-- Level 9: Rainbow Spectrum Butterfly -->
  <defs>
    <linearGradient id="rainbowGradient" x1="0%" y1="0%" x2="100%" y2="100%">
      <stop offset="0%" stop-color="#FF0000"/>
      <stop offset="16.6%" stop-color="#FF9900"/>
      <stop offset="33.3%" stop-color="#FFFF00"/>
      <stop offset="50%" stop-color="#00FF00"/>
      <stop offset="66.6%" stop-color="#0099FF"/>
      <stop offset="83.3%" stop-color="#6633FF"/>
      <stop offset="100%" stop-color="#CC33FF"/>
    </linearGradient>
    <filter id="shadow" x="-20%" y="-20%" width="140%" height="140%">
      <feGaussianBlur in="SourceAlpha" stdDeviation="2"/>
      <feOffset dx="1" dy="1" result="offsetblur"/>
      <feComponentTransfer>
        <feFuncA type="linear" slope="0.5"/>
      </feComponentTransfer>
      <feMerge>
        <feMergeNode/>
        <feMergeNode in="SourceGraphic"/>
      </feMerge>
    </filter>
    <filter id="prismatic" x="-20%" y="-20%" width="140%" height="140%">
      <feGaussianBlur stdDeviation="1.5" result="blur"/>
      <feSpecularLighting result="specOut" in="blur" specularExponent="20" lightingColor="white">
        <fePointLight x="50" y="75" z="200"/>
      </feSpecularLighting>
      <feComposite in="SourceGraphic" in2="specOut" operator="arithmetic" k1="0" k2="1" k3="1" k4="0"/>
    </filter>
    <radialGradient id="centerGlow" cx="0.5" cy="0.5" r="0.5">
      <stop offset="0%" stop-color="white" stop-opacity="0.9"/>
      <stop offset="100%" stop-color="white" stop-opacity="0"/>
    </radialGradient>
  </defs>
  
  <!-- Body -->
  <g transform="translate(0,0)">
    <!-- Butterfly Body -->
    <ellipse cx="0" cy="0" rx="4" ry="20" fill="#222222"/>
    <ellipse cx="0" cy="-15" rx="3.5" ry="5" fill="#333333"/> <!-- Thorax -->
    
    <!-- Antennae -->
    <path d="M0,-18 Q-8,-28 -12,-38" fill="none" stroke="#222222" stroke-width="1"/>
    <path d="M0,-18 Q8,-28 12,-38" fill="none" stroke="#222222" stroke-width="1"/>
    <circle cx="-12" cy="-38" r="1.2" fill="#222222"/>
    <circle cx="12" cy="-38" r="1.2" fill="#222222"/>
    
    <!-- Rainbow Forewings -->
    <path d="M0,0 C-8,-15 -45,-30 -60,-12 C-65,5 -55,25 -28,25 C-15,15 0,0 0,0 Z" 
          fill="url(#rainbowGradient)" 
          filter="url(#shadow)"
          stroke="#222222" 
          stroke-width="0.5"/>
    
    <path d="M0,0 C8,-15 45,-30 60,-12 C65,5 55,25 28,25 C15,15 0,0 0,0 Z" 
          fill="url(#rainbowGradient)" 
          filter="url(#shadow)"
          stroke="#222222" 
          stroke-width="0.5"/>
    
    <!-- Prismatic Forewing Effect -->
    <path d="M-30,-10 C-40,-5 -45,0 -40,10" 
          stroke="white" 
          stroke-width="10" 
          stroke-opacity="0.2"
          filter="url(#prismatic)"
          fill="none"/>
          
    <path d="M30,-10 C40,-5 45,0 40,10" 
          stroke="white" 
          stroke-width="10" 
          stroke-opacity="0.2"
          filter="url(#prismatic)"
          fill="none"/>
    
    <!-- Wing Veins -->
    <path d="M-2,0 L-30,-20 M-2,0 L-40,-5 M-2,0 L-40,10 M-2,0 L-30,20" 
          stroke="#222222" 
          stroke-width="0.5" 
          fill="none"/>
    
    <path d="M2,0 L30,-20 M2,0 L40,-5 M2,0 L40,10 M2,0 L30,20" 
          stroke="#222222" 
          stroke-width="0.5" 
          fill="none"/>
    
    <!-- Elaborate Hindwings -->
    <path d="M0,0 C-8,10 -20,28 -18,40 C-30,38 -35,25 -28,15 C-20,8 -6,2 0,0 Z" 
          fill="url(#rainbowGradient)" 
          stroke="#222222" 
          stroke-width="0.5"
          opacity="0.9"
          filter="url(#shadow)"/>
    
    <path d="M0,0 C8,10 20,28 18,40 C30,38 35,25 28,15 C20,8 6,2 0,0 Z" 
          fill="url(#rainbowGradient)" 
          stroke="#222222" 
          stroke-width="0.5"
          opacity="0.9"
          filter="url(#shadow)"/>
          
    <!-- Gold Accents -->
    <path d="M-40,-15 L-35,-10 L-42,-5 L-38,0 L-45,5 L-40,10" 
          stroke="#FFDD00" 
          stroke-width="1" 
          fill="none"/>
          
    <path d="M40,-15 L35,-10 L42,-5 L38,0 L45,5 L40,10" 
          stroke="#FFDD00" 
          stroke-width="1" 
          fill="none"/>
          
    <circle cx="-30" cy="-12" r="3" fill="none" stroke="#FFDD00" stroke-width="0.8"/>
    <circle cx="30" cy="-12" r="3" fill="none" stroke="#FFDD00" stroke-width="0.8"/>
    
    <!-- White Accents -->
    <circle cx="-45" cy="0" r="2" fill="white" opacity="0.8"/>
    <circle cx="-35" cy="-15" r="1.5" fill="white" opacity="0.8"/>
    <circle cx="-25" cy="15" r="1.5" fill="white" opacity="0.8"/>
    
    <circle cx="45" cy="0" r="2" fill="white" opacity="0.8"/>
    <circle cx="35" cy="-15" r="1.5" fill="white" opacity="0.8"/>
    <circle cx="25" cy="15" r="1.5" fill="white" opacity="0.8"/>
    
    <!-- Center Glow -->
    <circle cx="0" cy="0" r="10" fill="url(#centerGlow)" opacity="0.7"/>
    
    <!-- Edge Details -->
    <path d="M-60,-12 C-62,-5 -63,5 -55,15" 
          stroke="white" 
          stroke-width="0.8" 
          stroke-dasharray="1,2"
          fill="none"/>
          
    <path d="M60,-12 C62,-5 63,5 55,15" 
          stroke="white" 
          stroke-width="0.8" 
          stroke-dasharray="1,2"
          fill="none"/>
  </g>
</svg>
