<svg xmlns="http://www.w3.org/2000/svg" viewBox="-50 -40 100 80">
  <!-- Level 7: Red Admiral/Golden Birdwing Inspired -->
  <defs>
    <linearGradient id="redWing" x1="0%" y1="0%" x2="100%" y2="100%">
      <stop offset="0%" stop-color="#AA0000"/>
      <stop offset="50%" stop-color="#880000"/>
      <stop offset="100%" stop-color="#660000"/>
    </linearGradient>
    <linearGradient id="goldWing" x1="0%" y1="0%" x2="100%" y2="100%">
      <stop offset="0%" stop-color="#FFCC00"/>
      <stop offset="50%" stop-color="#FFAA00"/>
      <stop offset="100%" stop-color="#FF8800"/>
    </linearGradient>
    <filter id="shadow" x="-20%" y="-20%" width="140%" height="140%">
      <feGaussianBlur in="SourceAlpha" stdDeviation="2"/>
      <feOffset dx="1" dy="1" result="offsetblur"/>
      <feComponentTransfer>
        <feFuncA type="linear" slope="0.5"/>
      </feComponentTransfer>
      <feMerge>
        <feMergeNode/>
        <feMergeNode in="SourceGraphic"/>
      </feMerge>
    </filter>
    <pattern id="checkered" width="8" height="8" patternUnits="userSpaceOnUse">
      <rect x="0" y="0" width="4" height="4" fill="white" opacity="0.4"/>
      <rect x="4" y="4" width="4" height="4" fill="white" opacity="0.4"/>
    </pattern>
    <linearGradient id="stripeGradient" x1="0%" y1="0%" x2="100%" y2="0%">
      <stop offset="0%" stop-color="#FFCC00"/>
      <stop offset="100%" stop-color="#FF6600"/>
    </linearGradient>
  </defs>
  
  <!-- Body -->
  <g transform="translate(0,0)">
    <!-- Butterfly Body -->
    <ellipse cx="0" cy="0" rx="3.5" ry="17" fill="#220000"/>
    
    <!-- Antennae -->
    <path d="M0,-15 Q-7,-24 -11,-32" fill="none" stroke="#220000" stroke-width="0.8"/>
    <path d="M0,-15 Q7,-24 11,-32" fill="none" stroke="#220000" stroke-width="0.8"/>
    <circle cx="-11" cy="-32" r="1" fill="#220000"/>
    <circle cx="11" cy="-32" r="1" fill="#220000"/>
    
    <!-- Forewings -->
    <path d="M0,0 C-6,-12 -38,-25 -50,-10 C-54,0 -48,18 -25,20 C-12,12 0,0 0,0 Z" 
          fill="url(#redWing)" 
          filter="url(#shadow)"
          stroke="#220000" 
          stroke-width="0.4"/>
    
    <path d="M0,0 C6,-12 38,-25 50,-10 C54,0 48,18 25,20 C12,12 0,0 0,0 Z" 
          fill="url(#redWing)" 
          filter="url(#shadow)"
          stroke="#220000" 
          stroke-width="0.4"/>
    
    <!-- Golden Striped Pattern -->
    <path d="M-30,-15 Q-20,-5 -10,5" 
          stroke="url(#stripeGradient)" 
          stroke-width="12" 
          stroke-linecap="round"
          opacity="0.9"
          fill="none"/>
          
    <path d="M30,-15 Q20,-5 10,5" 
          stroke="url(#stripeGradient)" 
          stroke-width="12" 
          stroke-linecap="round"
          opacity="0.9"
          fill="none"/>
    
    <!-- Wing Pattern -->
    <path d="M0,0 C-6,-12 -38,-25 -50,-10 C-54,0 -48,18 -25,20 C-12,12 0,0 0,0 Z" 
          fill="url(#checkered)"
          opacity="0.3"/>
          
    <path d="M0,0 C6,-12 38,-25 50,-10 C54,0 48,18 25,20 C12,12 0,0 0,0 Z" 
          fill="url(#checkered)"
          opacity="0.3"/>
    
    <!-- Wing Veins -->
    <path d="M-2,0 L-25,-10 M-2,0 L-30,0 M-2,0 L-25,10 M-15,10 L-20,18" 
          stroke="#220000" 
          stroke-width="0.4" 
          fill="none"/>
    
    <path d="M2,0 L25,-10 M2,0 L30,0 M2,0 L25,10 M15,10 L20,18" 
          stroke="#220000" 
          stroke-width="0.4" 
          fill="none"/>
    
    <!-- Wing Border Details -->
    <path d="M-50,-7 Q-52,-2 -50,5 Q-45,10 -40,12" 
          stroke="white" 
          stroke-width="1" 
          fill="none"
          opacity="0.7"/>
          
    <path d="M50,-7 Q52,-2 50,5 Q45,10 40,12" 
          stroke="white" 
          stroke-width="1" 
          fill="none"
          opacity="0.7"/>
    
    <!-- Hindwings -->
    <path d="M0,0 C-6,8 -15,22 -12,32 C-22,35 -25,25 -18,15 C-12,8 -5,2 0,0 Z" 
          fill="url(#goldWing)" 
          stroke="#220000" 
          stroke-width="0.4"
          opacity="0.95"
          filter="url(#shadow)"/>
    
    <path d="M0,0 C6,8 15,22 12,32 C22,35 25,25 18,15 C12,8 5,2 0,0 Z" 
          fill="url(#goldWing)" 
          stroke="#220000" 
          stroke-width="0.4"
          opacity="0.95"
          filter="url(#shadow)"/>
          
    <!-- Hindwing Pattern -->
    <path d="M-15,12 C-18,15 -18,22 -12,28" 
          stroke="#AA0000" 
          stroke-width="3" 
          stroke-linecap="round"
          fill="none"/>
          
    <path d="M15,12 C18,15 18,22 12,28" 
          stroke="#AA0000" 
          stroke-width="3" 
          stroke-linecap="round"
          fill="none"/>
    
    <!-- Small Blue Spots -->
    <circle cx="-12" cy="25" r="2" fill="#0088FF" stroke="#220000" stroke-width="0.3"/>
    <circle cx="12" cy="25" r="2" fill="#0088FF" stroke="#220000" stroke-width="0.3"/>
    <circle cx="-8" cy="18" r="1.5" fill="#0088FF" stroke="#220000" stroke-width="0.3"/>
    <circle cx="8" cy="18" r="1.5" fill="#0088FF" stroke="#220000" stroke-width="0.3"/>
  </g>
</svg>
